<svg height="464pt" viewBox="0 -9 464 464" width="464pt" xmlns="http://www.w3.org/2000/svg"><path d="m160 0h144c17.671875 0 32 14.328125 32 32v144c0 17.671875-14.328125 32-32 32h-144c-17.671875 0-32-14.328125-32-32v-144c0-17.671875 14.328125-32 32-32zm0 0" fill="#c4f236"/><path d="m464 400-232-16-232 16v32l200-13.839844c1.976562 16.039063 15.601562 28.089844 31.761719 28.089844 16.160156 0 29.78125-12.050781 31.757812-28.089844l200.480469 13.839844zm0 0" fill="#cc5144"/><path d="m440 352-122.640625-29.199219c-29.085937-6.925781-59.722656-2.1875-85.359375 13.199219v48l208 16zm0 0" fill="#57b7eb"/><path d="m24 352 122.640625-29.199219c29.085937-6.925781 59.722656-2.1875 85.359375 13.199219v48l-208 16zm0 0" fill="#57b7eb"/><path d="m317.359375 322.800781c-29.085937-6.925781-59.722656-2.1875-85.359375 13.199219v24c25.636719-15.386719 56.273438-20.125 85.359375-13.199219l122.640625 29.199219v-24zm0 0" fill="#aae1f9"/><path d="m146.640625 322.800781-122.640625 29.199219v24l122.640625-29.199219c29.085937-6.925781 59.722656-2.1875 85.359375 13.199219v-24c-25.636719-15.386719-56.273438-20.125-85.359375-13.199219zm0 0" fill="#aae1f9"/><path d="m464 400-232-16-232 16v16l202-13.921875c3.621094-.265625 7.191406.988281 9.847656 3.464844 2.65625 2.476562 4.164063 5.945312 4.152344 9.578125-.316406 8.121094 5.308594 15.273437 13.28125 16.878906 4.691406.808594 9.496094-.511719 13.117188-3.605469 3.617187-3.089843 5.671874-7.636719 5.601562-12.394531-.011719-3.859375 1.589844-7.546875 4.414062-10.171875 2.824219-2.628906 6.617188-3.957031 10.464844-3.667969l201.121094 13.839844zm0 0" fill="#f8664f"/><path d="m160 40v-40c-17.671875 0-32 14.328125-32 32v144c0 17.671875 14.328125 32 32 32h144c17.671875 0 32-14.328125 32-32v-8h-48c-70.691406 0-128-57.308594-128-128zm0 0" fill="#a1d51c"/><path d="m184 160v-112l112 56zm0 0" fill="#f8664f"/><path d="m184 114.398438v45.601562l30.558594-15.28125c-11.824219-8.308594-22.15625-18.558594-30.558594-30.320312zm0 0" fill="#cc5144"/><g fill="#f9e109"><path d="m232 312c-4.417969 0-8-3.582031-8-8v-56c0-4.417969 3.582031-8 8-8s8 3.582031 8 8v56c0 4.417969-3.582031 8-8 8zm0 0"/><path d="m280 288h-1.601562c-2.140626-.382812-4.035157-1.625-5.242188-3.4375s-1.625-4.035156-1.15625-6.164062l8-40c.882812-4.417969 5.183594-7.28125 9.601562-6.398438 4.417969.882812 7.28125 5.183594 6.398438 9.601562l-8 40c-.773438 3.785157-4.136719 6.476563-8 6.398438zm0 0"/><path d="m176 288c-3.863281.078125-7.226562-2.613281-8-6.398438l-8-40c-.882812-4.417968 1.980469-8.71875 6.398438-9.601562 4.417968-.882812 8.71875 1.980469 9.601562 6.398438l8 40c.46875 2.128906.050781 4.351562-1.15625 6.164062s-3.101562 3.054688-5.242188 3.4375zm0 0"/><path d="m320 296c-1.574219.019531-3.113281-.457031-4.398438-1.359375-3.652343-2.441406-4.652343-7.371094-2.242187-11.039063l48-72c1.4375-2.675781 4.261719-4.308593 7.296875-4.214843 3.035156.089843 5.753906 1.894531 7.023438 4.652343 1.265624 2.757813.863281 5.996094-1.039063 8.359376l-48 72c-1.472656 2.238281-3.964844 3.585937-6.640625 3.601562zm0 0"/><path d="m136 296c-2.675781-.015625-5.167969-1.363281-6.640625-3.601562l-48-72c-1.902344-2.363282-2.304687-5.601563-1.039063-8.359376 1.269532-2.757812 3.988282-4.5625 7.023438-4.652343 3.035156-.09375 5.859375 1.539062 7.296875 4.214843l48 72c2.410156 3.667969 1.410156 8.597657-2.242187 11.039063-1.285157.902344-2.824219 1.378906-4.398438 1.359375zm0 0"/><path d="m368 304c-2.519531 0-4.890625-1.1875-6.398438-3.199219-2.652343-3.535156-1.9375-8.550781 1.597657-11.199219l32-24c3.535156-2.652343 8.550781-1.9375 11.199219 1.597657 2.652343 3.535156 1.9375 8.550781-1.597657 11.199219l-32 24c-1.386719 1.039062-3.070312 1.601562-4.800781 1.601562zm0 0"/><path d="m96 304c-1.730469 0-3.414062-.5625-4.800781-1.601562l-32-24c-3.535157-2.648438-4.25-7.664063-1.597657-11.199219 2.648438-3.535157 7.664063-4.25 11.199219-1.597657l32 24c3.535157 2.648438 4.25 7.664063 1.597657 11.199219-1.507813 2.011719-3.878907 3.199219-6.398438 3.199219zm0 0"/></g></svg>